%TF.GenerationSoftware,KiCad,Pcbnew,8.0.4*%
%TF.CreationDate,2024-08-05T15:52:57+01:00*%
%TF.ProjectId,OXC_Port_LEDs,4f58435f-506f-4727-945f-4c4544732e6b,rev?*%
%TF.SameCoordinates,Original*%
%TF.FileFunction,Legend,Bot*%
%TF.FilePolarity,Positive*%
%FSLAX46Y46*%
G04 Gerber Fmt 4.6, Leading zero omitted, Abs format (unit mm)*
G04 Created by KiCad (PCBNEW 8.0.4) date 2024-08-05 15:52:57*
%MOMM*%
%LPD*%
G01*
G04 APERTURE LIST*
G04 Aperture macros list*
%AMRoundRect*
0 Rectangle with rounded corners*
0 $1 Rounding radius*
0 $2 $3 $4 $5 $6 $7 $8 $9 X,Y pos of 4 corners*
0 Add a 4 corners polygon primitive as box body*
4,1,4,$2,$3,$4,$5,$6,$7,$8,$9,$2,$3,0*
0 Add four circle primitives for the rounded corners*
1,1,$1+$1,$2,$3*
1,1,$1+$1,$4,$5*
1,1,$1+$1,$6,$7*
1,1,$1+$1,$8,$9*
0 Add four rect primitives between the rounded corners*
20,1,$1+$1,$2,$3,$4,$5,0*
20,1,$1+$1,$4,$5,$6,$7,0*
20,1,$1+$1,$6,$7,$8,$9,0*
20,1,$1+$1,$8,$9,$2,$3,0*%
%AMOutline5P*
0 Free polygon, 5 corners , with rotation*
0 The origin of the aperture is its center*
0 number of corners: always 5*
0 $1 to $10 corner X, Y*
0 $11 Rotation angle, in degrees counterclockwise*
0 create outline with 5 corners*
4,1,5,$1,$2,$3,$4,$5,$6,$7,$8,$9,$10,$1,$2,$11*%
%AMOutline6P*
0 Free polygon, 6 corners , with rotation*
0 The origin of the aperture is its center*
0 number of corners: always 6*
0 $1 to $12 corner X, Y*
0 $13 Rotation angle, in degrees counterclockwise*
0 create outline with 6 corners*
4,1,6,$1,$2,$3,$4,$5,$6,$7,$8,$9,$10,$11,$12,$1,$2,$13*%
%AMOutline7P*
0 Free polygon, 7 corners , with rotation*
0 The origin of the aperture is its center*
0 number of corners: always 7*
0 $1 to $14 corner X, Y*
0 $15 Rotation angle, in degrees counterclockwise*
0 create outline with 7 corners*
4,1,7,$1,$2,$3,$4,$5,$6,$7,$8,$9,$10,$11,$12,$13,$14,$1,$2,$15*%
%AMOutline8P*
0 Free polygon, 8 corners , with rotation*
0 The origin of the aperture is its center*
0 number of corners: always 8*
0 $1 to $16 corner X, Y*
0 $17 Rotation angle, in degrees counterclockwise*
0 create outline with 8 corners*
4,1,8,$1,$2,$3,$4,$5,$6,$7,$8,$9,$10,$11,$12,$13,$14,$15,$16,$1,$2,$17*%
G04 Aperture macros list end*
%ADD10C,0.000000*%
%ADD11C,0.100000*%
%ADD12C,0.200000*%
%ADD13C,0.120000*%
%ADD14Outline8P,-1.350000X0.540000X-0.540000X1.350000X0.540000X1.350000X1.350000X0.540000X1.350000X-0.540000X0.540000X-1.350000X-0.540000X-1.350000X-1.350000X-0.540000X0.000000*%
%ADD15RoundRect,0.250000X0.450000X-0.325000X0.450000X0.325000X-0.450000X0.325000X-0.450000X-0.325000X0*%
G04 APERTURE END LIST*
D10*
G36*
X60848746Y-36265338D02*
G01*
X60648746Y-36265338D01*
X60648746Y-36065338D01*
X60848746Y-36065338D01*
X60848746Y-36265338D01*
G37*
G36*
X75377960Y-36243452D02*
G01*
X75177960Y-36243452D01*
X75177960Y-36043452D01*
X75377960Y-36043452D01*
X75377960Y-36243452D01*
G37*
D11*
X68174687Y-36227180D02*
X68222306Y-36274800D01*
X68222306Y-36274800D02*
X68365163Y-36322419D01*
X68365163Y-36322419D02*
X68460401Y-36322419D01*
X68460401Y-36322419D02*
X68603258Y-36274800D01*
X68603258Y-36274800D02*
X68698496Y-36179561D01*
X68698496Y-36179561D02*
X68746115Y-36084323D01*
X68746115Y-36084323D02*
X68793734Y-35893847D01*
X68793734Y-35893847D02*
X68793734Y-35750990D01*
X68793734Y-35750990D02*
X68746115Y-35560514D01*
X68746115Y-35560514D02*
X68698496Y-35465276D01*
X68698496Y-35465276D02*
X68603258Y-35370038D01*
X68603258Y-35370038D02*
X68460401Y-35322419D01*
X68460401Y-35322419D02*
X68365163Y-35322419D01*
X68365163Y-35322419D02*
X68222306Y-35370038D01*
X68222306Y-35370038D02*
X68174687Y-35417657D01*
X67222306Y-35370038D02*
X67317544Y-35322419D01*
X67317544Y-35322419D02*
X67460401Y-35322419D01*
X67460401Y-35322419D02*
X67603258Y-35370038D01*
X67603258Y-35370038D02*
X67698496Y-35465276D01*
X67698496Y-35465276D02*
X67746115Y-35560514D01*
X67746115Y-35560514D02*
X67793734Y-35750990D01*
X67793734Y-35750990D02*
X67793734Y-35893847D01*
X67793734Y-35893847D02*
X67746115Y-36084323D01*
X67746115Y-36084323D02*
X67698496Y-36179561D01*
X67698496Y-36179561D02*
X67603258Y-36274800D01*
X67603258Y-36274800D02*
X67460401Y-36322419D01*
X67460401Y-36322419D02*
X67365163Y-36322419D01*
X67365163Y-36322419D02*
X67222306Y-36274800D01*
X67222306Y-36274800D02*
X67174687Y-36227180D01*
X67174687Y-36227180D02*
X67174687Y-35893847D01*
X67174687Y-35893847D02*
X67365163Y-35893847D01*
D12*
X60380326Y-33986266D02*
X59618422Y-33986266D01*
X59999374Y-34367219D02*
X59999374Y-33605314D01*
X75530326Y-39086266D02*
X74768422Y-39086266D01*
X76330326Y-34086266D02*
X75568422Y-34086266D01*
X75949374Y-34467219D02*
X75949374Y-33705314D01*
X61130326Y-39136266D02*
X60368422Y-39136266D01*
D13*
%TO.C,D1*%
X59740000Y-35150000D02*
X59740000Y-38010000D01*
X59740000Y-38010000D02*
X61660000Y-38010000D01*
X61660000Y-38010000D02*
X61660000Y-35150000D01*
%TO.C,D2*%
X74340000Y-35175000D02*
X74340000Y-38035000D01*
X74340000Y-38035000D02*
X76260000Y-38035000D01*
X76260000Y-38035000D02*
X76260000Y-35175000D01*
%TD*%
%LPC*%
D14*
%TO.C,J1*%
X63500000Y-36550000D03*
%TD*%
%TO.C,J2*%
X72500000Y-36550000D03*
%TD*%
D15*
%TO.C,D1*%
X60700000Y-37175000D03*
X60700000Y-35125000D03*
%TD*%
%TO.C,D2*%
X75300000Y-37200000D03*
X75300000Y-35150000D03*
%TD*%
%LPD*%
M02*
