%TF.GenerationSoftware,KiCad,Pcbnew,8.0.4*%
%TF.CreationDate,2024-08-05T15:52:57+01:00*%
%TF.ProjectId,OXC_Port_LEDs,4f58435f-506f-4727-945f-4c4544732e6b,rev?*%
%TF.SameCoordinates,Original*%
%TF.FileFunction,Legend,Top*%
%TF.FilePolarity,Positive*%
%FSLAX46Y46*%
G04 Gerber Fmt 4.6, Leading zero omitted, Abs format (unit mm)*
G04 Created by KiCad (PCBNEW 8.0.4) date 2024-08-05 15:52:57*
%MOMM*%
%LPD*%
G01*
G04 APERTURE LIST*
G04 Aperture macros list*
%AMRoundRect*
0 Rectangle with rounded corners*
0 $1 Rounding radius*
0 $2 $3 $4 $5 $6 $7 $8 $9 X,Y pos of 4 corners*
0 Add a 4 corners polygon primitive as box body*
4,1,4,$2,$3,$4,$5,$6,$7,$8,$9,$2,$3,0*
0 Add four circle primitives for the rounded corners*
1,1,$1+$1,$2,$3*
1,1,$1+$1,$4,$5*
1,1,$1+$1,$6,$7*
1,1,$1+$1,$8,$9*
0 Add four rect primitives between the rounded corners*
20,1,$1+$1,$2,$3,$4,$5,0*
20,1,$1+$1,$4,$5,$6,$7,0*
20,1,$1+$1,$6,$7,$8,$9,0*
20,1,$1+$1,$8,$9,$2,$3,0*%
%AMOutline5P*
0 Free polygon, 5 corners , with rotation*
0 The origin of the aperture is its center*
0 number of corners: always 5*
0 $1 to $10 corner X, Y*
0 $11 Rotation angle, in degrees counterclockwise*
0 create outline with 5 corners*
4,1,5,$1,$2,$3,$4,$5,$6,$7,$8,$9,$10,$1,$2,$11*%
%AMOutline6P*
0 Free polygon, 6 corners , with rotation*
0 The origin of the aperture is its center*
0 number of corners: always 6*
0 $1 to $12 corner X, Y*
0 $13 Rotation angle, in degrees counterclockwise*
0 create outline with 6 corners*
4,1,6,$1,$2,$3,$4,$5,$6,$7,$8,$9,$10,$11,$12,$1,$2,$13*%
%AMOutline7P*
0 Free polygon, 7 corners , with rotation*
0 The origin of the aperture is its center*
0 number of corners: always 7*
0 $1 to $14 corner X, Y*
0 $15 Rotation angle, in degrees counterclockwise*
0 create outline with 7 corners*
4,1,7,$1,$2,$3,$4,$5,$6,$7,$8,$9,$10,$11,$12,$13,$14,$1,$2,$15*%
%AMOutline8P*
0 Free polygon, 8 corners , with rotation*
0 The origin of the aperture is its center*
0 number of corners: always 8*
0 $1 to $16 corner X, Y*
0 $17 Rotation angle, in degrees counterclockwise*
0 create outline with 8 corners*
4,1,8,$1,$2,$3,$4,$5,$6,$7,$8,$9,$10,$11,$12,$13,$14,$15,$16,$1,$2,$17*%
G04 Aperture macros list end*
%ADD10C,0.100000*%
%ADD11C,0.200000*%
%ADD12C,0.120000*%
%ADD13Outline8P,-1.350000X0.540000X-0.540000X1.350000X0.540000X1.350000X1.350000X0.540000X1.350000X-0.540000X0.540000X-1.350000X-0.540000X-1.350000X-1.350000X-0.540000X0.000000*%
%ADD14RoundRect,0.237500X0.250000X0.237500X-0.250000X0.237500X-0.250000X-0.237500X0.250000X-0.237500X0*%
%ADD15RoundRect,0.237500X-0.250000X-0.237500X0.250000X-0.237500X0.250000X0.237500X-0.250000X0.237500X0*%
G04 APERTURE END LIST*
D10*
X65734984Y-35306619D02*
X65734984Y-34306619D01*
X66306412Y-35306619D02*
X65877841Y-34735190D01*
X66306412Y-34306619D02*
X65734984Y-34878047D01*
X67115936Y-35259000D02*
X67020698Y-35306619D01*
X67020698Y-35306619D02*
X66830222Y-35306619D01*
X66830222Y-35306619D02*
X66734984Y-35259000D01*
X66734984Y-35259000D02*
X66687365Y-35163761D01*
X66687365Y-35163761D02*
X66687365Y-34782809D01*
X66687365Y-34782809D02*
X66734984Y-34687571D01*
X66734984Y-34687571D02*
X66830222Y-34639952D01*
X66830222Y-34639952D02*
X67020698Y-34639952D01*
X67020698Y-34639952D02*
X67115936Y-34687571D01*
X67115936Y-34687571D02*
X67163555Y-34782809D01*
X67163555Y-34782809D02*
X67163555Y-34878047D01*
X67163555Y-34878047D02*
X66687365Y-34973285D01*
X67592127Y-35306619D02*
X67592127Y-34306619D01*
X67687365Y-34925666D02*
X67973079Y-35306619D01*
X67973079Y-34639952D02*
X67592127Y-35020904D01*
X68830222Y-34639952D02*
X68830222Y-35306619D01*
X68401651Y-34639952D02*
X68401651Y-35163761D01*
X68401651Y-35163761D02*
X68449270Y-35259000D01*
X68449270Y-35259000D02*
X68544508Y-35306619D01*
X68544508Y-35306619D02*
X68687365Y-35306619D01*
X68687365Y-35306619D02*
X68782603Y-35259000D01*
X68782603Y-35259000D02*
X68830222Y-35211380D01*
X69449270Y-35306619D02*
X69354032Y-35259000D01*
X69354032Y-35259000D02*
X69306413Y-35163761D01*
X69306413Y-35163761D02*
X69306413Y-34306619D01*
X70211175Y-35259000D02*
X70115937Y-35306619D01*
X70115937Y-35306619D02*
X69925461Y-35306619D01*
X69925461Y-35306619D02*
X69830223Y-35259000D01*
X69830223Y-35259000D02*
X69782604Y-35163761D01*
X69782604Y-35163761D02*
X69782604Y-34782809D01*
X69782604Y-34782809D02*
X69830223Y-34687571D01*
X69830223Y-34687571D02*
X69925461Y-34639952D01*
X69925461Y-34639952D02*
X70115937Y-34639952D01*
X70115937Y-34639952D02*
X70211175Y-34687571D01*
X70211175Y-34687571D02*
X70258794Y-34782809D01*
X70258794Y-34782809D02*
X70258794Y-34878047D01*
X70258794Y-34878047D02*
X69782604Y-34973285D01*
D11*
X65069673Y-36036266D02*
X65831578Y-36036266D01*
X65450625Y-36417219D02*
X65450625Y-35655314D01*
X70069673Y-36036266D02*
X70831578Y-36036266D01*
D10*
X64266666Y-32526109D02*
X64100000Y-32288014D01*
X63980952Y-32526109D02*
X63980952Y-32026109D01*
X63980952Y-32026109D02*
X64171428Y-32026109D01*
X64171428Y-32026109D02*
X64219047Y-32049919D01*
X64219047Y-32049919D02*
X64242857Y-32073728D01*
X64242857Y-32073728D02*
X64266666Y-32121347D01*
X64266666Y-32121347D02*
X64266666Y-32192776D01*
X64266666Y-32192776D02*
X64242857Y-32240395D01*
X64242857Y-32240395D02*
X64219047Y-32264204D01*
X64219047Y-32264204D02*
X64171428Y-32288014D01*
X64171428Y-32288014D02*
X63980952Y-32288014D01*
X64742857Y-32526109D02*
X64457143Y-32526109D01*
X64600000Y-32526109D02*
X64600000Y-32026109D01*
X64600000Y-32026109D02*
X64552381Y-32097538D01*
X64552381Y-32097538D02*
X64504762Y-32145157D01*
X64504762Y-32145157D02*
X64457143Y-32168966D01*
X72016666Y-32526109D02*
X71850000Y-32288014D01*
X71730952Y-32526109D02*
X71730952Y-32026109D01*
X71730952Y-32026109D02*
X71921428Y-32026109D01*
X71921428Y-32026109D02*
X71969047Y-32049919D01*
X71969047Y-32049919D02*
X71992857Y-32073728D01*
X71992857Y-32073728D02*
X72016666Y-32121347D01*
X72016666Y-32121347D02*
X72016666Y-32192776D01*
X72016666Y-32192776D02*
X71992857Y-32240395D01*
X71992857Y-32240395D02*
X71969047Y-32264204D01*
X71969047Y-32264204D02*
X71921428Y-32288014D01*
X71921428Y-32288014D02*
X71730952Y-32288014D01*
X72207143Y-32073728D02*
X72230952Y-32049919D01*
X72230952Y-32049919D02*
X72278571Y-32026109D01*
X72278571Y-32026109D02*
X72397619Y-32026109D01*
X72397619Y-32026109D02*
X72445238Y-32049919D01*
X72445238Y-32049919D02*
X72469047Y-32073728D01*
X72469047Y-32073728D02*
X72492857Y-32121347D01*
X72492857Y-32121347D02*
X72492857Y-32168966D01*
X72492857Y-32168966D02*
X72469047Y-32240395D01*
X72469047Y-32240395D02*
X72183333Y-32526109D01*
X72183333Y-32526109D02*
X72492857Y-32526109D01*
%TO.C,J1*%
X61950000Y-36550000D02*
G75*
G02*
X65050000Y-36550000I1550000J0D01*
G01*
D12*
%TO.C,R1*%
X64592224Y-32927500D02*
X64082776Y-32927500D01*
X64592224Y-33972500D02*
X64082776Y-33972500D01*
%TO.C,R2*%
X71857776Y-32927500D02*
X72367224Y-32927500D01*
X71857776Y-33972500D02*
X72367224Y-33972500D01*
D10*
%TO.C,J2*%
X70950000Y-36550000D02*
G75*
G02*
X74050000Y-36550000I1550000J0D01*
G01*
%TD*%
%LPC*%
D13*
%TO.C,J1*%
X63500000Y-36550000D03*
%TD*%
D14*
%TO.C,R1*%
X65250000Y-33450000D03*
X63425000Y-33450000D03*
%TD*%
D15*
%TO.C,R2*%
X71200000Y-33450000D03*
X73025000Y-33450000D03*
%TD*%
D13*
%TO.C,J2*%
X72500000Y-36550000D03*
%TD*%
%LPD*%
M02*
